HIERARCHY
ROOT hip
{
	OFFSET 0.000000 0.000000 0.000000 
	CHANNELS 6 Xposition Yposition Zposition Xrotation Zrotation Yrotation
	JOINT abdomen
	{
		OFFSET 0.000000 3.402643 0.000000 
		CHANNELS 3 Xrotation Zrotation Yrotation
		JOINT chest
		{
			OFFSET 0.000000 8.438565 -0.680529 
			CHANNELS 3 Xrotation Zrotation Yrotation
			JOINT neck
			{
				OFFSET 0.000000 10.207942 -0.272212 
				CHANNELS 3 Xrotation Zrotation Yrotation
				JOINT head
				{
					OFFSET 0.000000 3.130431 0.000000 
					CHANNELS 3 Xrotation Zrotation Yrotation
					End Site
					{
						OFFSET 0.000000 3.130435 0.000000 
					}
				}
			}
			JOINT lCollar
			{
				OFFSET 3.470700 6.669187 -0.816635 
				CHANNELS 3 Yrotation Zrotation Xrotation
				JOINT lShldr
				{
					OFFSET 3.198488 0.000000 0.000000 
					CHANNELS 3 Zrotation Yrotation Xrotation
					JOINT lForeArm
					{
						OFFSET 10.139888 0.000000 0.000000 
						CHANNELS 3 Yrotation Zrotation Xrotation
						JOINT lHand
						{
							OFFSET 8.370511 0.000000 0.000000 
							CHANNELS 3 Zrotation Yrotation Xrotation
							End Site
							{
								OFFSET 4.083176 0.000000 0.000000 
							}
						}
					}
				}
			}
			JOINT rCollar
			{
				OFFSET -3.470700 6.669187 -0.816635 
				CHANNELS 3 Yrotation Zrotation Xrotation
				JOINT rShldr
				{
					OFFSET -3.198488 0.000000 0.000000 
					CHANNELS 3 Zrotation Yrotation Xrotation
					JOINT rForeArm
					{
						OFFSET -10.139888 0.000000 0.000000 
						CHANNELS 3 Yrotation Zrotation Xrotation
						JOINT rHand
						{
							OFFSET -8.370511 0.000000 0.000000 
							CHANNELS 3 Zrotation Yrotation Xrotation
							End Site
							{
								OFFSET -4.083176 0.000000 0.000000 
							}
						}
					}
				}
			}
		}
	}
	JOINT lThigh
	{
		OFFSET 5.308129 -1.633274 1.361059 
		CHANNELS 3 Xrotation Zrotation Yrotation
		JOINT lShin
		{
			OFFSET -2.041588 -20.007561 0.000000 
			CHANNELS 3 Xrotation Zrotation Yrotation
			JOINT lFoot
			{
				OFFSET 0.000000 -19.190928 -1.224953 
				CHANNELS 3 Xrotation Yrotation Zrotation
				End Site
				{
					OFFSET 0.000000 -2.449906 4.627600 
				}
			}
		}
	}
	JOINT rThigh
	{
		OFFSET -5.308129 -1.633274 1.361059 
		CHANNELS 3 Xrotation Zrotation Yrotation
		JOINT rShin
		{
			OFFSET 2.041588 -20.007561 0.000000 
			CHANNELS 3 Xrotation Zrotation Yrotation
			JOINT rFoot
			{
				OFFSET 0.000000 -19.190928 -1.224953 
				CHANNELS 3 Xrotation Yrotation Zrotation
				End Site
				{
					OFFSET 0.000000 -2.449906 4.627600 
				}
			}
		}
	}
}
MOTION
Frames: 8
Frame Time: 0.033333
87.629601 47.191586 8.517841 5.532496 -16.188000 -79.917267 35.472069 8.881203 -15.096045 -20.839844 0.000000 0.000000 7.425664 4.885110 4.666995 -2.520860 -1.255023 0.218345 -4.754609 -0.109182 -0.002653 13.318576 6.322680 -13.087077 -3.691866 -8.580762 18.780661 -7.486435 22.482361 -14.879250 4.754609 0.109182 -0.002672 23.045881 -16.644279 -27.325867 56.846493 -5.203537 7.919621 2.714609 -46.414265 14.213411 -8.192637 21.568401 8.640893 57.504894 -0.638147 -8.820397 -35.918438 -5.445102 -3.832919 -1.075057 -13.745857 -18.875591 53.259426 17.447104 0.908967 -33.887001 12.387784 -4.048463 
87.591026 47.188526 8.188878 6.335322 -15.184484 -80.064835 35.523655 8.933390 -15.438643 -20.839844 0.000000 0.000000 5.915634 5.740212 4.692425 -2.520860 -1.255023 0.218345 -4.754609 -0.109182 -0.002653 12.336323 4.000644 -12.947762 -1.807794 -6.993262 17.841282 -8.830011 21.782591 -17.892740 4.754609 0.109182 -0.002672 26.184561 -16.580557 -27.313131 58.684669 -5.683330 8.523784 2.147166 -44.517475 15.545888 -9.716337 22.360710 8.317057 57.558407 -0.072618 -8.952217 -35.595470 -5.137781 -3.942690 -1.924133 -13.396708 -19.168406 53.626846 18.295164 1.236865 -35.176044 12.517283 -1.137399 
87.527061 47.181423 7.811666 6.983880 -14.263014 -80.187767 35.777828 9.121781 -15.750953 -20.839844 0.000000 0.000000 4.302747 5.994455 4.814178 -2.520860 -1.255023 0.218345 -4.754609 -0.109182 -0.002653 9.885484 0.880482 -12.444169 1.017199 -5.080330 17.692860 -9.627572 20.871956 -20.006500 4.754609 0.109182 -0.002672 30.042242 -16.424944 -27.118795 61.226799 -6.062232 9.001655 1.630434 -42.780544 16.394258 -11.023444 23.177893 8.117947 57.561550 0.404822 -9.089169 -35.398888 -4.920621 -4.100231 -2.588756 -13.597610 -19.770027 54.443817 19.055426 1.469430 -36.370163 12.012492 1.872607 
87.405205 47.171268 7.422788 7.326023 -13.612880 -80.553421 36.201111 9.350659 -15.963043 -20.839844 0.000000 0.000000 2.760576 5.575047 5.266920 -2.520860 -1.255023 0.218345 -4.754609 -0.109182 -0.002653 5.466873 0.979118 -11.065015 -3.309578 -4.285738 17.709768 -9.445594 19.730644 -20.023340 4.754609 0.109182 -0.002672 34.461918 -16.230055 -26.590643 64.853470 -6.117526 8.913176 2.536567 -41.508743 15.363445 -11.521141 24.378096 8.725846 57.427822 0.278355 -9.371589 -35.379654 -5.287637 -4.532978 -3.165138 -14.463619 -20.217981 55.840233 19.192072 0.759295 -37.037380 9.763158 3.082834 
87.196060 47.169750 7.037961 7.355141 -13.253345 -81.374649 36.598965 9.600126 -15.982436 -20.839844 0.000000 0.000000 1.512204 4.620181 6.246353 -2.520860 -1.255023 0.218345 -4.754609 -0.109182 -0.002653 0.122285 2.343292 -9.615908 -9.808958 -5.665436 17.877995 -8.909838 17.914993 -18.383936 4.754609 0.109182 -0.002672 39.194767 -16.364534 -25.666170 69.629494 -5.629127 8.956055 6.105485 -39.799282 13.098999 -11.061955 25.440252 9.710567 57.130154 -0.161715 -9.508809 -35.527046 -5.684811 -5.015070 -3.623749 -15.940987 -20.396824 57.575565 18.462543 -1.059184 -36.963547 6.381219 0.493133 
86.873672 47.171268 6.640959 7.202124 -13.170437 -82.705040 36.853264 9.866883 -15.739274 -20.839844 0.000000 0.000000 0.743545 3.396106 7.753760 -2.520860 -1.255023 0.218345 -4.754609 -0.109182 -0.002653 -5.818926 4.966233 -8.260923 -18.664379 -9.333197 17.414097 -8.056852 15.921736 -15.963522 4.754609 0.109182 -0.002672 43.951950 -16.976242 -24.308537 74.714043 -4.378193 9.887790 10.321879 -37.099892 11.994456 -9.921161 25.514446 9.944885 56.633141 -0.132238 -9.170573 -35.912659 -4.783576 -5.716237 -3.595335 -17.774662 -20.330027 58.862564 17.034662 -2.945824 -35.383934 3.313319 -3.784771 
86.441635 47.134716 6.204855 6.984913 -13.292843 -84.447311 37.017334 10.076735 -15.250076 -20.839844 0.000000 0.000000 0.409467 2.244138 9.604328 -2.520860 -1.255023 0.218345 -4.754609 -0.109182 -0.002653 -12.042804 8.131717 -6.701013 -29.229387 -14.687243 16.080063 -6.349093 14.856791 -14.073291 4.754609 0.109182 -0.002672 48.867405 -17.931204 -22.507938 79.504738 -2.264760 11.311083 12.023511 -34.481087 12.722453 -8.339094 24.614630 9.287741 55.995869 0.560919 -8.200689 -36.458660 -2.347478 -6.755011 -2.823325 -19.371141 -19.992804 58.867058 15.099708 -3.856302 -31.096106 1.264066 -6.694320 
85.942589 46.990528 5.701742 6.730386 -13.522923 -86.250488 37.227093 10.015655 -14.676847 -20.839844 0.000000 0.000000 0.288334 1.432021 11.490355 -2.520860 -1.255023 0.218345 -4.754609 -0.109182 -0.002653 -18.805962 10.899657 -4.843843 -40.710976 -19.869938 13.742207 -3.995360 15.210732 -13.062645 4.754609 0.109182 -0.002672 54.429493 -19.041153 -20.385134 83.815567 0.543092 11.986921 11.198141 -32.826714 13.471292 -6.786299 23.109541 7.851162 55.711563 1.725862 -6.821270 -36.836716 1.223932 -7.821886 -1.242201 -20.559185 -19.664812 57.433361 13.284245 -3.061684 -25.674089 1.068622 -5.977025 
